<mxfile host="app.diagrams.net" modified="2024-03-07T01:16:02.396Z" agent="Mozilla/5.0 (Macintosh; Intel Mac OS X 10_15_7) AppleWebKit/537.36 (KHTML, like Gecko) Chrome/121.0.0.0 Safari/537.36" etag="2Xk8Zz-cxWQ1tvmhd_NJ" version="23.1.7" type="github">
  <diagram id="C5RBs43oDa-KdzZeNtuy" name="Page-1">
    <mxGraphModel dx="1272" dy="820" grid="1" gridSize="10" guides="1" tooltips="1" connect="1" arrows="1" fold="1" page="1" pageScale="1" pageWidth="827" pageHeight="1169" math="0" shadow="0">
      <root>
        <mxCell id="WIyWlLk6GJQsqaUBKTNV-0" />
        <mxCell id="WIyWlLk6GJQsqaUBKTNV-1" parent="WIyWlLk6GJQsqaUBKTNV-0" />
        <mxCell id="c1F5C940WFleQ-BjnS3O-10" style="edgeStyle=orthogonalEdgeStyle;rounded=0;orthogonalLoop=1;jettySize=auto;html=1;entryX=0;entryY=0.5;entryDx=0;entryDy=0;" edge="1" parent="WIyWlLk6GJQsqaUBKTNV-1" source="c1F5C940WFleQ-BjnS3O-2" target="c1F5C940WFleQ-BjnS3O-6">
          <mxGeometry relative="1" as="geometry" />
        </mxCell>
        <mxCell id="c1F5C940WFleQ-BjnS3O-2" value="application1" style="rounded=0;whiteSpace=wrap;html=1;" vertex="1" parent="WIyWlLk6GJQsqaUBKTNV-1">
          <mxGeometry x="50" y="200" width="120" height="40" as="geometry" />
        </mxCell>
        <mxCell id="c1F5C940WFleQ-BjnS3O-8" style="edgeStyle=orthogonalEdgeStyle;rounded=0;orthogonalLoop=1;jettySize=auto;html=1;entryX=0;entryY=0.5;entryDx=0;entryDy=0;" edge="1" parent="WIyWlLk6GJQsqaUBKTNV-1" source="c1F5C940WFleQ-BjnS3O-4" target="c1F5C940WFleQ-BjnS3O-6">
          <mxGeometry relative="1" as="geometry" />
        </mxCell>
        <mxCell id="c1F5C940WFleQ-BjnS3O-4" value="application2" style="rounded=0;whiteSpace=wrap;html=1;" vertex="1" parent="WIyWlLk6GJQsqaUBKTNV-1">
          <mxGeometry x="50" y="260" width="120" height="40" as="geometry" />
        </mxCell>
        <mxCell id="c1F5C940WFleQ-BjnS3O-9" style="edgeStyle=orthogonalEdgeStyle;rounded=0;orthogonalLoop=1;jettySize=auto;html=1;entryX=0;entryY=0.5;entryDx=0;entryDy=0;" edge="1" parent="WIyWlLk6GJQsqaUBKTNV-1" source="c1F5C940WFleQ-BjnS3O-5" target="c1F5C940WFleQ-BjnS3O-6">
          <mxGeometry relative="1" as="geometry" />
        </mxCell>
        <mxCell id="c1F5C940WFleQ-BjnS3O-5" value="application3" style="rounded=0;whiteSpace=wrap;html=1;" vertex="1" parent="WIyWlLk6GJQsqaUBKTNV-1">
          <mxGeometry x="50" y="330" width="120" height="40" as="geometry" />
        </mxCell>
        <mxCell id="c1F5C940WFleQ-BjnS3O-6" value="" style="whiteSpace=wrap;html=1;aspect=fixed;" vertex="1" parent="WIyWlLk6GJQsqaUBKTNV-1">
          <mxGeometry x="370" y="220" width="120" height="120" as="geometry" />
        </mxCell>
        <mxCell id="c1F5C940WFleQ-BjnS3O-11" value="OPEN AI" style="ellipse;shape=cloud;whiteSpace=wrap;html=1;" vertex="1" parent="WIyWlLk6GJQsqaUBKTNV-1">
          <mxGeometry x="590" y="650" width="200" height="130" as="geometry" />
        </mxCell>
      </root>
    </mxGraphModel>
  </diagram>
</mxfile>
